# Blender 3.6.1 Release Candidate
# www.blender.org
o pCone1
v 0.046925 0.054533 0.019437
v 0.035914 0.054533 0.035914
v 0.046439 0.050407 0.031030
v 0.019437 0.054533 0.046925
v 0.031030 0.050407 0.046439
v 0.000000 0.054533 0.050791
v 0.010896 0.050407 0.054779
v -0.019437 0.054533 0.046925
v -0.010896 0.050407 0.054779
v -0.035914 0.054533 0.035914
v -0.031030 0.050407 0.046439
v -0.046925 0.054533 0.019437
v -0.046439 0.050407 0.031030
v -0.050791 0.054533 0.000000
v -0.054779 0.050407 0.010896
v -0.046925 0.054533 -0.019437
v -0.054779 0.050407 -0.010896
v -0.035914 0.054533 -0.035914
v -0.046439 0.050407 -0.031030
v -0.019437 0.054533 -0.046925
v -0.031030 0.050407 -0.046439
v -0.000000 0.054533 -0.050791
v -0.010896 0.050407 -0.054779
v 0.019437 0.054533 -0.046925
v 0.010896 0.050407 -0.054779
v 0.035914 0.054533 -0.035914
v 0.031030 0.050407 -0.046439
v 0.046925 0.054533 -0.019437
v 0.046439 0.050407 -0.031030
v 0.050791 0.054533 -0.000000
v 0.054779 0.050407 -0.010896
v 0.054779 0.050407 0.010896
v 0.085811 0.026341 0.017069
v 0.079159 0.029835 0.032789
v 0.072747 0.026341 0.048608
v 0.081660 0.023579 0.033825
v 0.060586 0.029835 0.060586
v 0.048608 0.026341 0.072747
v 0.062500 0.023579 0.062500
v 0.032789 0.029835 0.079159
v 0.017069 0.026341 0.085811
v 0.033825 0.023579 0.081660
v 0.012435 -0.038571 0.012435
v 0.000000 0.029835 0.085681
v -0.017069 0.026341 0.085811
v 0.000000 0.023579 0.088388
v -0.032789 0.029835 0.079159
v -0.048608 0.026341 0.072747
v -0.033825 0.023579 0.081660
v 0.000000 -0.038571 0.017585
v -0.060586 0.029835 0.060586
v -0.072747 0.026341 0.048608
v -0.062500 0.023579 0.062500
v -0.079159 0.029835 0.032789
v -0.085811 0.026341 0.017069
v -0.081660 0.023579 0.033825
v -0.012435 -0.038571 0.012435
v -0.085681 0.029835 0.000000
v -0.085811 0.026341 -0.017069
v -0.088388 0.023579 0.000000
v -0.079159 0.029835 -0.032789
v -0.072747 0.026341 -0.048608
v -0.081660 0.023579 -0.033825
v -0.017585 -0.038571 0.000000
v -0.060586 0.029835 -0.060586
v -0.048608 0.026341 -0.072747
v -0.062500 0.023579 -0.062500
v -0.032789 0.029835 -0.079159
v -0.017069 0.026341 -0.085811
v -0.033825 0.023579 -0.081660
v -0.012435 -0.038571 -0.012435
v -0.000000 0.029835 -0.085681
v 0.017069 0.026341 -0.085811
v -0.000000 0.023579 -0.088388
v 0.032789 0.029835 -0.079159
v 0.048608 0.026341 -0.072747
v 0.033825 0.023579 -0.081660
v -0.000000 -0.038571 -0.017585
v 0.060586 0.029835 -0.060586
v 0.072747 0.026341 -0.048608
v 0.062500 0.023579 -0.062500
v 0.079159 0.029835 -0.032789
v 0.085811 0.026341 -0.017069
v 0.081660 0.023579 -0.033825
v 0.012435 -0.038571 -0.012435
v 0.085681 0.029835 -0.000000
v 0.088388 0.023579 -0.000000
v 0.017585 -0.038571 0.000000
v 0.016247 -0.038571 0.006730
v 0.000000 -0.054533 0.000000
v 0.006730 -0.038571 0.016247
v -0.006730 -0.038571 0.016247
v -0.016247 -0.038571 0.006730
v -0.016247 -0.038571 -0.006730
v -0.006730 -0.038571 -0.016247
v 0.006730 -0.038571 -0.016247
v 0.016247 -0.038571 -0.006730
v -0.038851 0.040014 0.058145
v -0.024798 0.045144 0.059867
v -0.013643 0.040014 0.068587
v 0.013643 0.040014 0.068587
v 0.024798 0.045144 0.059867
v 0.038851 0.040014 0.058145
v 0.058145 0.040014 0.038851
v 0.059867 0.045144 0.024798
v 0.068587 0.040014 0.013643
v 0.068587 0.040014 -0.013643
v 0.059867 0.045144 -0.024798
v 0.058145 0.040014 -0.038851
v 0.038851 0.040014 -0.058145
v 0.024798 0.045144 -0.059867
v 0.013643 0.040014 -0.068587
v -0.013643 0.040014 -0.068587
v -0.024798 0.045144 -0.059867
v -0.038851 0.040014 -0.058145
v -0.058145 0.040014 -0.038851
v -0.059867 0.045144 -0.024798
v -0.068587 0.040014 -0.013643
v -0.068587 0.040014 0.013643
v -0.059867 0.045144 0.024798
v -0.058145 0.040014 0.038851
vn 0.4691 0.8256 0.3134
vn 0.3134 0.8256 0.4691
vn 0.1101 0.8256 0.5533
vn -0.1101 0.8256 0.5533
vn -0.3134 0.8256 0.4691
vn -0.4691 0.8256 0.3134
vn -0.5533 0.8256 0.1101
vn -0.5533 0.8256 -0.1101
vn -0.4691 0.8256 -0.3134
vn -0.3134 0.8256 -0.4691
vn -0.1101 0.8256 -0.5533
vn 0.1101 0.8256 -0.5533
vn 0.3134 0.8256 -0.4691
vn 0.4691 0.8256 -0.3134
vn 0.5533 0.8256 -0.1101
vn 0.5533 0.8256 0.1101
vn 0.8479 0.3971 0.3512
vn 0.6489 0.3972 0.6489
vn 0.6489 0.3971 0.6490
vn 0.3512 0.3971 0.8479
vn 0.3512 0.3972 0.8479
vn 0.3513 0.3968 0.8480
vn 0.5642 -0.7344 0.3772
vn 0.5643 -0.7344 0.3771
vn 0.5643 -0.7344 0.3770
vn -0.0000 0.3968 0.9179
vn -0.0000 0.3972 0.9178
vn -0.0000 0.3971 0.9178
vn 0.3770 -0.7344 0.5643
vn 0.3771 -0.7344 0.5643
vn -0.3512 0.3971 0.8479
vn -0.3512 0.3972 0.8479
vn 0.1325 -0.7344 0.6656
vn 0.1324 -0.7344 0.6656
vn -0.6491 0.3968 0.6491
vn -0.6490 0.3971 0.6489
vn -0.1325 -0.7344 0.6656
vn -0.1324 -0.7344 0.6656
vn -0.8479 0.3971 0.3512
vn -0.8478 0.3973 0.3512
vn -0.8479 0.3972 0.3512
vn -0.3771 -0.7344 0.5643
vn -0.3770 -0.7344 0.5643
vn -0.9178 0.3971 -0.0000
vn -0.9178 0.3972 -0.0000
vn -0.5643 -0.7344 0.3770
vn -0.5643 -0.7344 0.3771
vn -0.8479 0.3971 -0.3512
vn -0.8479 0.3972 -0.3512
vn -0.6657 -0.7344 0.1323
vn -0.6656 -0.7344 0.1324
vn -0.6490 0.3971 -0.6490
vn -0.6489 0.3971 -0.6490
vn -0.6656 -0.7344 -0.1325
vn -0.6656 -0.7344 -0.1324
vn -0.3513 0.3968 -0.8480
vn -0.3512 0.3971 -0.8479
vn -0.3512 0.3972 -0.8479
vn -0.5643 -0.7344 -0.3771
vn -0.5643 -0.7344 -0.3770
vn -0.0000 0.3968 -0.9179
vn -0.0000 0.3972 -0.9178
vn -0.0000 0.3971 -0.9178
vn -0.3772 -0.7344 -0.5642
vn -0.3770 -0.7344 -0.5643
vn -0.3771 -0.7344 -0.5643
vn 0.3513 0.3968 -0.8480
vn 0.3512 0.3971 -0.8479
vn -0.1326 -0.7344 -0.6656
vn -0.1324 -0.7344 -0.6656
vn 0.6491 0.3968 -0.6491
vn 0.6490 0.3971 -0.6489
vn 0.6489 0.3971 -0.6490
vn 0.1324 -0.7344 -0.6657
vn 0.1324 -0.7344 -0.6656
vn 0.8479 0.3972 -0.3512
vn 0.8479 0.3971 -0.3512
vn 0.8478 0.3973 -0.3512
vn 0.3772 -0.7344 -0.5642
vn 0.3771 -0.7344 -0.5643
vn 0.3770 -0.7344 -0.5643
vn 0.9178 0.3971 -0.0000
vn 0.9178 0.3972 -0.0000
vn 0.5643 -0.7344 -0.3771
vn 0.5643 -0.7344 -0.3770
vn 0.6656 -0.7344 0.1325
vn 0.6656 -0.7344 0.1324
vn 0.6656 -0.7344 -0.1325
vn 0.6656 -0.7344 -0.1324
vn 0.5648 -0.7339 0.3774
vn 0.3774 -0.7339 0.5648
vn 0.1325 -0.7339 0.6662
vn -0.1325 -0.7339 0.6662
vn -0.3774 -0.7339 0.5648
vn -0.5648 -0.7339 0.3774
vn -0.6662 -0.7339 0.1325
vn -0.6662 -0.7339 -0.1325
vn -0.5648 -0.7339 -0.3774
vn -0.3774 -0.7339 -0.5648
vn -0.1325 -0.7339 -0.6662
vn 0.1325 -0.7339 -0.6662
vn 0.3774 -0.7339 -0.5648
vn 0.5648 -0.7339 -0.3774
vn 0.6662 -0.7339 0.1325
vn 0.6662 -0.7339 -0.1325
vn -0.1301 -0.7452 0.6541
vn 0.1301 -0.7452 0.6541
vn 0.3705 -0.7452 0.5545
vn 0.5545 -0.7452 0.3705
vn 0.6541 -0.7452 0.1301
vn 0.6541 -0.7452 -0.1301
vn 0.5545 -0.7452 -0.3705
vn 0.3705 -0.7452 -0.5545
vn 0.1301 -0.7452 -0.6541
vn -0.1301 -0.7452 -0.6541
vn -0.3705 -0.7452 -0.5545
vn -0.5545 -0.7452 -0.3705
vn -0.6541 -0.7452 -0.1301
vn -0.6541 -0.7452 0.1301
vn -0.5545 -0.7452 0.3705
vn -0.3705 -0.7452 0.5545
vn -0.3413 0.7890 0.5108
vn -0.3514 0.7988 0.4883
vn -0.0968 0.7988 0.5938
vn -0.1199 0.7890 0.6025
vn -0.1198 0.7890 0.6025
vn 0.1199 0.7890 0.6025
vn 0.1198 0.7890 0.6025
vn 0.0968 0.7988 0.5938
vn 0.3514 0.7988 0.4883
vn 0.3413 0.7890 0.5108
vn 0.5108 0.7890 0.3413
vn 0.4883 0.7988 0.3514
vn 0.5938 0.7988 0.0968
vn 0.6025 0.7890 0.1198
vn 0.6025 0.7890 0.1199
vn 0.6025 0.7890 -0.1199
vn 0.6025 0.7890 -0.1198
vn 0.5938 0.7988 -0.0968
vn 0.4883 0.7988 -0.3514
vn 0.5108 0.7890 -0.3413
vn 0.3413 0.7890 -0.5108
vn 0.3514 0.7988 -0.4883
vn 0.0968 0.7988 -0.5938
vn 0.1199 0.7890 -0.6025
vn 0.1198 0.7890 -0.6025
vn -0.1199 0.7890 -0.6025
vn -0.1198 0.7890 -0.6025
vn -0.0968 0.7988 -0.5938
vn -0.3514 0.7988 -0.4883
vn -0.3413 0.7890 -0.5108
vn -0.5108 0.7890 -0.3413
vn -0.4883 0.7988 -0.3514
vn -0.5938 0.7988 -0.0968
vn -0.6025 0.7890 -0.1199
vn -0.6025 0.7890 -0.1198
vn -0.6025 0.7890 0.1199
vn -0.6025 0.7890 0.1198
vn -0.5938 0.7988 0.0968
vn -0.4883 0.7988 0.3514
vn -0.5108 0.7890 0.3413
vn -0.4120 0.8127 -0.4120
vn -0.5827 0.8127 -0.0000
vn -0.4120 0.8127 0.4120
vn -0.0000 0.8127 0.5827
vn 0.4120 0.8127 0.4120
vn 0.5827 0.8127 -0.0000
vn 0.5826 0.8127 -0.0000
vn 0.4120 0.8127 -0.4120
vn -0.0000 0.8127 -0.5827
vn -0.0000 1.0000 -0.0000
vt 0.382152 0.831975
vt 0.419130 0.822744
vt 0.405544 0.847177
vt 0.449753 0.800524
vt 0.448105 0.829764
vt 0.469382 0.767841
vt 0.477033 0.794743
vt 0.475326 0.730482
vt 0.494826 0.752353
vt 0.466055 0.693587
vt 0.490500 0.707121
vt 0.443878 0.662856
vt 0.473095 0.664589
vt 0.411200 0.643459
vt 0.438046 0.635667
vt 0.373804 0.637273
vt 0.395680 0.617921
vt 0.336961 0.646796
vt 0.350447 0.622241
vt 0.306172 0.668746
vt 0.307956 0.639644
vt 0.286806 0.701633
vt 0.279016 0.674668
vt 0.280618 0.738824
vt 0.261267 0.717017
vt 0.290088 0.775866
vt 0.265555 0.762241
vt 0.312104 0.806435
vt 0.282946 0.804757
vt 0.344885 0.826035
vt 0.317949 0.833699
vt 0.360334 0.851478
vt 0.344393 0.973321
vt 0.389492 0.961064
vt 0.424677 0.980582
vt 0.385827 0.991411
vt 0.437983 0.968053
vt 0.475467 0.939915
vt 0.515343 0.945389
vt 0.483066 0.969588
vt 0.523020 0.927172
vt 0.546236 0.886610
vt 0.584909 0.875511
vt 0.565112 0.910649
vt 0.442445 0.280315
vt 0.722624 0.204748
vt 0.732693 0.234189
vt 0.724599 0.265627
vt 0.585472 0.857240
vt 0.592063 0.810840
vt 0.624109 0.786488
vt 0.618428 0.826427
vt 0.729788 0.295365
vt 0.717390 0.324256
vt 0.616672 0.768183
vt 0.604389 0.723098
vt 0.623852 0.687885
vt 0.634734 0.726719
vt 0.436450 0.305185
vt 0.719637 0.354287
vt 0.704459 0.380722
vt 0.611350 0.674577
vt 0.583188 0.637124
vt 0.588595 0.597241
vt 0.612843 0.629480
vt 0.701185 0.410036
vt 0.681680 0.433191
vt 0.570414 0.589568
vt 0.529846 0.566396
vt 0.518689 0.527740
vt 0.553853 0.547487
vt 0.422035 0.327472
vt 0.676403 0.462796
vt 0.655464 0.483770
vt 0.500466 0.527179
vt 0.454079 0.520626
vt 0.429693 0.488606
vt 0.469635 0.494247
vt 0.644591 0.511821
vt 0.619652 0.528848
vt 0.411442 0.496036
vt 0.366384 0.508338
vt 0.331161 0.488889
vt 0.369989 0.477992
vt 0.402167 0.345698
vt 0.610153 0.560170
vt 0.587886 0.578986
vt 0.317900 0.501373
vt 0.280472 0.529531
vt 0.240587 0.524121
vt 0.272826 0.499875
vt 0.188868 0.554717
vt 0.166711 0.534314
vt 0.159706 0.502335
vt 0.232948 0.542269
vt 0.209779 0.582819
vt 0.171114 0.593952
vt 0.190881 0.558801
vt 0.384307 0.325707
vt 0.137082 0.481703
vt 0.130535 0.451632
vt 0.170568 0.612153
vt 0.163996 0.658526
vt 0.131950 0.682883
vt 0.137627 0.642946
vt 0.111974 0.427949
vt 0.110760 0.397524
vt 0.139385 0.701124
vt 0.151656 0.746191
vt 0.132162 0.781390
vt 0.121310 0.742549
vt 0.372420 0.302006
vt 0.094608 0.371657
vt 0.096204 0.341705
vt 0.144658 0.794658
vt 0.172790 0.832118
vt 0.167325 0.871997
vt 0.143120 0.839726
vt 0.084848 0.313492
vt 0.091938 0.284090
vt 0.185505 0.879650
vt 0.226052 0.902864
vt 0.237135 0.941543
vt 0.202006 0.921733
vt 0.368651 0.276432
vt 0.084533 0.254041
vt 0.095405 0.225684
vt 0.255382 0.942091
vt 0.301775 0.948703
vt 0.326096 0.980775
vt 0.286163 0.975056
vt 0.093360 0.194575
vt 0.109494 0.168264
vt 0.374886 0.252173
vt 0.131640 0.112413
vt 0.139554 0.080913
vt 0.163612 0.060211
vt 0.112006 0.136503
vt 0.441261 0.268122
vt 0.409568 0.277985
vt 0.440616 0.292889
vt 0.430186 0.316782
vt 0.412905 0.337360
vt 0.392369 0.336346
vt 0.377462 0.314141
vt 0.369617 0.289187
vt 0.370743 0.263914
vt 0.381539 0.241902
vt 0.542452 0.692619
vt 0.523807 0.727169
vt 0.545970 0.759755
vt 0.524015 0.821240
vt 0.486395 0.832465
vt 0.479026 0.871182
vt 0.420037 0.899135
vt 0.385508 0.880478
vt 0.352907 0.902631
vt 0.291439 0.880680
vt 0.280224 0.843077
vt 0.241514 0.835682
vt 0.213582 0.776711
vt 0.232241 0.742198
vt 0.210092 0.709607
vt 0.232023 0.648164
vt 0.269620 0.636944
vt 0.276985 0.598238
vt 0.335935 0.570280
vt 0.370469 0.588920
vt 0.403040 0.566750
vt 0.464515 0.588664
vt 0.475767 0.626269
vt 0.514479 0.633629
s 1
g off
f 1/1/1 2/2/1 3/3/1
f 2/2/2 4/4/2 5/5/2
f 4/4/3 6/6/3 7/7/3
f 6/6/4 8/8/4 9/9/4
f 8/8/5 10/10/5 11/11/5
f 10/10/6 12/12/6 13/13/6
f 12/12/7 14/14/7 15/15/7
f 14/14/8 16/16/8 17/17/8
f 16/16/9 18/18/9 19/19/9
f 18/18/10 20/20/10 21/21/10
f 20/20/11 22/22/11 23/23/11
f 22/22/12 24/24/12 25/25/12
f 24/24/13 26/26/13 27/27/13
f 26/26/14 28/28/14 29/29/14
f 28/28/15 30/30/15 31/31/15
f 30/30/16 1/1/16 32/32/16
f 33/33/17 34/34/17 35/35/17
f 35/35/17 36/36/17 33/33/17
f 35/37/18 37/38/19 38/39/18
f 38/39/18 39/40/19 35/37/18
f 38/41/20 40/42/21 41/43/22
f 41/43/22 42/44/20 38/41/20
f 43/45/23 36/46/24 35/47/24
f 35/47/24 39/48/25 43/45/23
f 41/49/26 44/50/27 45/51/26
f 45/51/26 46/52/28 41/49/26
f 43/45/29 39/48/29 38/53/29
f 38/53/29 42/54/30 43/45/29
f 45/55/31 47/56/32 48/57/32
f 48/57/32 49/58/31 45/55/31
f 50/59/33 42/54/34 41/60/34
f 41/60/34 46/61/34 50/59/33
f 48/62/35 51/63/36 52/64/35
f 52/64/35 53/65/36 48/62/35
f 50/59/37 46/61/38 45/66/38
f 45/66/38 49/67/38 50/59/37
f 52/68/39 54/69/39 55/70/40
f 55/70/40 56/71/41 52/68/39
f 57/72/42 49/67/42 48/73/43
f 48/73/43 53/74/43 57/72/42
f 55/75/44 58/76/45 59/77/44
f 59/77/44 60/78/44 55/75/44
f 57/72/46 53/74/46 52/79/47
f 52/79/47 56/80/47 57/72/46
f 59/81/48 61/82/49 62/83/48
f 62/83/48 63/84/49 59/81/48
f 64/85/50 56/80/51 55/86/51
f 55/86/51 60/87/51 64/85/50
f 62/88/52 65/89/53 66/90/52
f 66/90/52 67/91/53 62/88/52
f 64/85/54 60/92/55 59/93/55
f 59/93/55 63/94/55 64/85/54
f 66/95/56 68/96/57 69/97/58
f 69/97/58 70/98/57 66/95/56
f 71/99/59 63/94/59 62/100/59
f 62/100/59 67/101/60 71/99/59
f 69/102/61 72/103/62 73/104/63
f 73/104/63 74/105/63 69/102/61
f 71/99/64 67/101/65 66/106/66
f 66/106/66 70/107/66 71/99/64
f 73/108/67 75/109/68 76/110/67
f 76/110/67 77/111/68 73/108/67
f 78/112/69 70/107/70 69/113/70
f 69/113/70 74/114/70 78/112/69
f 76/115/71 79/116/72 80/117/71
f 80/117/71 81/118/73 76/115/71
f 78/112/74 74/114/75 73/119/75
f 73/119/75 77/120/75 78/112/74
f 80/121/76 82/122/77 83/123/78
f 83/123/78 84/124/76 80/121/76
f 85/125/79 77/120/80 76/126/80
f 76/126/80 81/127/81 85/125/79
f 83/128/82 86/129/83 33/130/82
f 33/130/82 87/131/82 83/128/82
f 85/125/84 81/127/85 80/132/84
f 80/132/84 84/133/84 85/125/84
f 88/134/86 87/135/87 33/136/87
f 33/136/87 36/137/87 88/134/86
f 88/134/88 84/133/89 83/138/89
f 83/138/89 87/135/89 88/134/88
f 89/139/90 43/45/90 90/140/90
f 43/45/91 91/141/91 90/140/91
f 91/141/92 50/59/92 90/140/92
f 50/59/93 92/142/93 90/140/93
f 92/142/94 57/72/94 90/140/94
f 57/72/95 93/143/95 90/140/95
f 93/143/96 64/85/96 90/140/96
f 64/85/97 94/144/97 90/140/97
f 94/144/98 71/99/98 90/140/98
f 71/99/99 95/145/99 90/140/99
f 95/145/100 78/112/100 90/140/100
f 78/112/101 96/146/101 90/140/101
f 96/146/102 85/125/102 90/140/102
f 85/125/103 97/147/103 90/140/103
f 88/134/104 89/148/104 90/140/104
f 97/147/105 88/134/105 90/140/105
f 50/59/106 49/67/106 92/142/106
f 42/54/107 50/59/107 91/141/107
f 43/45/108 42/54/108 91/141/108
f 36/46/109 43/45/109 89/139/109
f 88/134/110 36/137/110 89/148/110
f 84/133/111 88/134/111 97/147/111
f 85/125/112 84/133/112 97/147/112
f 77/120/113 85/125/113 96/146/113
f 78/112/114 77/120/114 96/146/114
f 70/107/115 78/112/115 95/145/115
f 71/99/116 70/107/116 95/145/116
f 63/94/117 71/99/117 94/144/117
f 64/85/118 63/94/118 94/144/118
f 56/80/119 64/85/119 93/143/119
f 57/72/120 56/80/120 93/143/120
f 49/67/121 57/72/121 92/142/121
f 48/62/122 47/56/122 98/149/122
f 98/149/122 51/63/122 48/62/122
f 99/150/123 98/149/123 47/56/123
f 100/151/124 99/150/124 47/56/124
f 45/55/125 44/50/125 100/151/125
f 100/151/125 47/56/126 45/55/125
f 41/49/127 40/42/128 101/152/127
f 101/152/127 44/50/127 41/49/127
f 102/153/129 101/152/129 40/42/129
f 103/154/130 102/153/130 40/42/130
f 38/41/131 37/38/131 103/154/131
f 103/154/131 40/42/131 38/41/131
f 35/37/132 34/34/132 104/155/132
f 104/155/132 37/38/132 35/37/132
f 105/156/133 104/155/133 34/34/133
f 106/157/134 105/156/134 34/34/134
f 33/33/135 86/129/136 106/157/136
f 106/157/136 34/34/135 33/33/135
f 83/128/137 82/122/138 107/158/137
f 107/158/137 86/129/137 83/128/137
f 108/159/139 107/158/139 82/122/139
f 109/160/140 108/159/140 82/122/140
f 80/121/141 79/116/141 109/160/141
f 109/160/141 82/122/141 80/121/141
f 76/115/142 75/109/142 110/161/142
f 110/161/142 79/116/142 76/115/142
f 111/162/143 110/161/143 75/109/143
f 112/163/144 111/162/144 75/109/144
f 73/108/145 72/103/145 112/163/145
f 112/163/145 75/109/146 73/108/145
f 69/102/147 68/96/148 113/164/147
f 113/164/147 72/103/147 69/102/147
f 114/165/149 113/164/149 68/96/149
f 115/166/150 114/165/150 68/96/150
f 66/95/151 65/89/151 115/166/151
f 115/166/151 68/96/151 66/95/151
f 62/88/152 61/82/152 116/167/152
f 116/167/152 65/89/152 62/88/152
f 117/168/153 116/167/153 61/82/153
f 118/169/154 117/168/154 61/82/154
f 59/81/155 58/76/155 118/169/155
f 118/169/155 61/82/156 59/81/155
f 55/75/157 54/69/158 119/170/157
f 119/170/157 58/76/157 55/75/157
f 120/171/159 119/170/159 54/69/159
f 121/172/160 120/171/160 54/69/160
f 52/68/161 51/63/161 121/172/161
f 121/172/161 54/69/161 52/68/161
f 12/12/7 15/15/7 120/171/7
f 120/171/6 13/13/6 12/12/6
f 8/8/5 11/11/5 99/150/5
f 99/150/4 9/9/4 8/8/4
f 4/4/3 7/7/3 102/153/3
f 102/153/2 5/5/2 4/4/2
f 1/1/1 3/3/1 105/156/1
f 105/156/16 32/32/16 1/1/16
f 28/28/15 31/31/15 108/159/15
f 108/159/14 29/29/14 28/28/14
f 24/24/13 27/27/13 111/162/13
f 111/162/12 25/25/12 24/24/12
f 20/20/11 23/23/11 114/165/11
f 114/165/10 21/21/10 20/20/10
f 16/16/9 19/19/9 117/168/9
f 117/168/8 17/17/8 16/16/8
f 19/19/162 18/18/162 21/21/162
f 19/19/162 21/21/162 114/165/162
f 19/19/162 114/165/162 115/166/162
f 19/19/162 115/166/162 65/89/162
f 19/19/162 65/89/162 116/167/162
f 19/19/162 116/167/162 117/168/162
f 15/15/163 14/14/163 17/17/163
f 15/15/163 17/17/163 117/168/163
f 15/15/163 117/168/163 118/169/163
f 15/15/163 118/169/163 58/76/163
f 15/15/163 58/76/163 119/170/163
f 15/15/163 119/170/163 120/171/163
f 11/11/164 10/10/164 13/13/164
f 11/11/164 13/13/164 120/171/164
f 11/11/164 120/171/164 121/172/164
f 11/11/164 121/172/164 51/63/164
f 11/11/164 51/63/164 98/149/164
f 11/11/164 98/149/164 99/150/164
f 102/153/165 7/7/165 6/6/165
f 102/153/165 6/6/165 9/9/165
f 102/153/165 9/9/165 99/150/165
f 102/153/165 99/150/165 100/151/165
f 100/151/165 44/50/165 101/152/165
f 100/151/165 101/152/165 102/153/165
f 3/3/166 2/2/166 5/5/166
f 3/3/166 5/5/166 102/153/166
f 3/3/166 102/153/166 103/154/166
f 3/3/166 103/154/166 37/38/166
f 3/3/166 37/38/166 104/155/166
f 3/3/166 104/155/166 105/156/166
f 108/159/167 31/31/168 30/30/167
f 108/159/167 30/30/167 32/32/167
f 108/159/167 32/32/167 105/156/167
f 108/159/167 105/156/167 106/157/167
f 106/157/167 86/129/167 107/158/167
f 106/157/167 107/158/167 108/159/167
f 27/27/169 26/26/169 29/29/169
f 27/27/169 29/29/169 108/159/169
f 27/27/169 108/159/169 109/160/169
f 27/27/169 109/160/169 79/116/169
f 27/27/169 79/116/169 110/161/169
f 27/27/169 110/161/169 111/162/169
f 23/23/170 22/22/170 25/25/170
f 23/23/170 25/25/170 111/162/170
f 23/23/170 111/162/170 112/163/170
f 23/23/170 112/163/170 72/103/170
f 23/23/170 72/103/170 113/164/170
f 23/23/170 113/164/170 114/165/170
f 4/4/171 2/2/171 1/1/171
f 4/4/171 1/1/171 30/30/171
f 4/4/171 30/30/171 28/28/171
f 4/4/171 28/28/171 26/26/171
f 4/4/171 26/26/171 24/24/171
f 4/4/171 24/24/171 22/22/171
f 4/4/171 22/22/171 20/20/171
f 4/4/171 20/20/171 18/18/171
f 4/4/171 18/18/171 16/16/171
f 4/4/171 16/16/171 14/14/171
f 4/4/171 14/14/171 12/12/171
f 4/4/171 12/12/171 10/10/171
f 4/4/171 10/10/171 8/8/171
f 8/8/171 6/6/171 4/4/171
