# Blender 3.6.1 Release Candidate
# www.blender.org
o finalIcosa
v 0.865901 -0.000000 -0.535156
v -0.330749 -0.330750 -0.330750
v -1.400687 0.330528 1.400477
v 0.204415 0.000000 -0.535164
v 1.731215 0.534804 -0.865672
v 1.400688 0.330528 -1.400476
v -1.731215 -0.534805 0.865672
v -0.865672 -1.731215 -0.534804
v 0.865672 1.731215 0.534805
v -0.330527 1.400477 1.400687
v -0.535145 1.935492 -0.000000
v 0.535164 0.204414 -0.000000
v 1.400687 -0.330528 1.400477
v 0.330527 1.400477 -1.400687
v 0.330749 0.330750 -0.330749
v 1.400477 1.400687 -0.330527
v 0.534804 -0.865673 1.731214
v 0.204416 0.000001 0.535167
v 0.534805 0.865673 1.731215
v 0.330528 -1.400478 1.400687
v 0.865672 -1.731215 0.534804
v 0.535155 -0.865901 -0.000000
v 0.330528 1.400477 1.400687
v -0.204414 -0.000000 0.535164
v -0.865900 -0.000000 0.535156
v -0.330528 1.400477 -1.400687
v 0.535145 1.935492 -0.000000
v -0.330751 -0.330751 0.330752
v -0.534804 -0.865673 1.731215
v -1.400477 1.400687 0.330528
v -0.000000 0.535156 -0.865900
v -1.731215 0.534804 0.865673
v -0.534805 0.865672 1.731215
v -0.865672 1.731215 0.534805
v -1.935492 -0.000000 -0.535145
v -1.400477 1.400687 -0.330527
v -0.000000 0.535167 0.204416
v 0.000000 0.535145 1.935492
v 0.000000 -0.535145 1.935491
v 0.000000 -0.535156 0.865900
v -1.400687 -0.330528 1.400477
v -0.330528 -1.400478 1.400687
v -0.865672 -1.731215 0.534804
v -0.535164 0.204415 -0.000000
v 0.000000 0.535156 0.865900
v 0.535164 -0.204414 0.000000
v -0.000000 -0.535156 -0.865900
v -0.535156 0.865900 -0.000000
v 0.534805 0.865672 -1.731214
v -1.400687 0.330528 -1.400476
v -0.865672 1.731215 -0.534804
v -0.330528 -1.400477 -1.400687
v -1.935493 -0.000000 0.535145
v -1.731215 -0.534805 -0.865672
v -1.400477 -1.400687 -0.330527
v -0.535167 -0.204415 0.000000
v -1.400477 -1.400688 0.330528
v 1.731215 0.534804 0.865672
v -0.000000 -0.535164 -0.204414
v -0.865901 -0.000000 -0.535156
v 1.935492 -0.000000 0.535145
v 1.400688 0.330527 1.400477
v 1.731215 -0.534805 0.865673
v 1.400477 1.400687 0.330527
v 0.330751 -0.330751 0.330751
v 1.935492 -0.000000 -0.535145
v 1.400477 -1.400688 0.330528
v -0.204415 0.000000 -0.535164
v 0.000000 0.535145 -1.935492
v -1.731214 0.534804 -0.865673
v -0.330750 0.330750 0.330750
v 0.534805 -0.865673 -1.731215
v 0.865900 -0.000000 0.535156
v 0.330750 0.330750 0.330750
v 1.400687 -0.330528 -1.400477
v 0.865672 1.731214 -0.534805
v -0.534805 0.865672 -1.731215
v 0.865673 -1.731215 -0.534804
v -0.330750 0.330750 -0.330750
v -1.400687 -0.330527 -1.400476
v -0.000000 0.535164 -0.204414
v -0.534805 -0.865672 -1.731214
v 0.000000 -0.535146 -1.935491
v 0.535156 0.865900 -0.000000
v 1.731215 -0.534805 -0.865672
v 1.400477 -1.400688 -0.330527
v 0.330751 -0.330751 -0.330751
v 0.330527 -1.400477 -1.400687
v 0.535144 -1.935493 0.000001
v 0.000000 -0.535167 0.204416
v -0.535146 -1.935492 0.000001
v -0.535156 -0.865900 0.000000
vn 0.3568 -0.0000 -0.9342
vn 0.9341 0.3570 -0.0000
vn -0.3568 -0.0000 -0.9342
vn -0.3567 0.0001 -0.9342
vn 0.3568 -0.0000 0.9342
vn -0.3568 -0.0000 0.9342
vn -0.5773 0.5774 0.5774
vn 0.5774 0.5775 0.5772
vn -0.9342 0.3568 -0.0000
vn -0.3567 0.0001 0.9342
vn 0.9342 -0.3568 -0.0000
vn 0.5773 -0.5773 -0.5774
vn 0.5773 0.5774 0.5774
vn -0.9342 -0.3567 -0.0001
vn 0.9342 0.3568 -0.0000
vn -0.5775 -0.5772 -0.5774
vn -0.9342 -0.3568 -0.0000
vn -0.5773 -0.5773 -0.5774
vn -0.5773 0.5774 -0.5774
vn 0.3567 0.0001 0.9342
vn 0.0001 0.9342 -0.3567
vn 0.5773 -0.5773 0.5774
vn 0.5773 0.5774 -0.5774
vn -0.5774 0.5775 -0.5772
vn -0.5775 -0.5772 0.5774
vn -0.5773 -0.5773 0.5774
vn -0.5773 0.5774 -0.5773
vn 0.3570 -0.0000 -0.9341
vn 0.5775 -0.5772 0.5774
vn 0.5774 -0.5773 0.5773
vn -0.0000 0.9342 0.3568
vn -0.5772 0.5774 -0.5775
vn 0.5774 0.5773 0.5773
vn -0.0000 -0.9341 -0.3570
vn -0.0000 -0.9342 -0.3568
vn 0.5773 0.5774 -0.5773
vn -0.0001 0.9342 0.3567
vn -0.0001 0.9342 -0.3567
vn -0.5774 -0.5773 0.5773
vn 0.5772 0.5774 -0.5775
vn -0.5774 0.5773 0.5773
vn -0.0000 0.9341 -0.3570
vn -0.5773 0.5774 0.5773
vn 0.3570 -0.0000 0.9341
vn 0.9342 -0.3567 0.0001
vn 0.5774 -0.5774 -0.5773
vn -0.0000 0.9342 -0.3568
vn -0.5772 0.5774 0.5775
vn 0.5774 0.5773 -0.5773
vn -0.0000 0.9341 0.3570
vn -0.0000 -0.9342 0.3568
vn 0.5773 0.5774 0.5773
vn 0.5772 0.5774 0.5775
vn 0.3567 0.0001 -0.9342
vn -0.5774 -0.5774 -0.5773
vn 0.5772 -0.5774 0.5775
vn -0.5774 0.5773 -0.5773
vn -0.5774 0.5775 0.5772
vn 0.5774 -0.5773 0.5774
vn 0.5774 0.5775 -0.5772
vn -0.9341 0.3570 -0.0000
vn -0.5772 -0.5774 -0.5775
vn -0.5775 0.5772 -0.5774
vn 0.9342 0.3567 -0.0001
vn -0.5774 0.5773 -0.5774
vn -0.3567 -0.0001 -0.9342
vn -0.0001 -0.9342 -0.3567
vn -0.0001 -0.9342 0.3567
vn -0.9342 0.3567 -0.0001
vn 0.5774 0.5773 -0.5774
vn -0.5774 -0.5775 0.5772
vn -0.5772 -0.5774 0.5775
vn 0.9342 0.3567 0.0001
vn -0.5775 0.5772 0.5774
vn -0.5774 0.5773 0.5774
vn -0.0000 -0.9341 0.3570
vn 0.5774 -0.5773 -0.5773
vn -0.9342 0.3567 0.0001
vn 0.5774 0.5773 0.5774
vn -0.5774 -0.5775 -0.5772
vn -0.5774 -0.5773 -0.5773
vn 0.5774 0.5774 0.5773
vn 0.5775 0.5772 -0.5774
vn 0.0001 -0.9342 -0.3567
vn -0.5773 -0.5774 -0.5773
vn 0.5774 0.5774 -0.5773
vn 0.5775 0.5772 0.5774
vn 0.5775 -0.5772 -0.5774
vn -0.5773 -0.5774 0.5773
vn 0.5773 0.5773 -0.5774
vn 0.5774 -0.5775 0.5772
vn -0.5773 -0.5774 0.5774
vn -0.5774 0.5774 0.5773
vn 0.3567 -0.0001 -0.9342
vn 0.5773 -0.5774 -0.5773
vn -0.3570 -0.0000 -0.9341
vn -0.5774 0.5774 -0.5773
vn 0.5774 -0.5775 -0.5772
vn 0.5773 -0.5774 0.5773
vn -0.9342 -0.3567 0.0001
vn -0.5773 0.5773 -0.5774
vn 0.9342 -0.3567 -0.0001
vn 0.5772 -0.5774 -0.5775
vn 0.5773 -0.5774 0.5774
vn 0.5773 0.5773 0.5774
vn -0.3567 -0.0001 0.9342
vn -0.9341 -0.3570 -0.0000
vn -0.5773 -0.5774 -0.5774
vn -0.5773 0.5773 0.5774
vn 0.3567 -0.0001 0.9342
vn -0.3570 -0.0000 0.9341
vn 0.5773 -0.5774 -0.5774
vn 0.9341 -0.3570 -0.0000
vn 0.0001 -0.9342 0.3567
vn 0.0001 0.9342 0.3567
vt 0.500000 0.500000
vt 0.488377 0.995539
vt 0.363337 0.668191
vt 0.004461 0.567575
vt 0.500000 0.499999
s 0
g off
f 81/1/1 27/2/1 84/3/1
f 37/1/2 81/1/2 11/4/2
f 81/5/3 48/3/3 11/2/3
f 15/1/4 81/1/4 76/4/4
f 37/5/5 84/3/5 27/2/5
f 37/1/6 11/2/6 48/3/6
f 81/5/7 84/3/7 76/2/7
f 15/1/8 14/4/8 81/1/8
f 81/1/9 14/2/9 31/3/9
f 74/1/10 9/4/10 37/1/10
f 15/1/11 76/2/11 84/3/11
f 15/5/12 31/3/12 14/2/12
f 81/1/13 51/2/13 48/3/13
f 68/1/14 79/1/14 77/4/14
f 81/5/15 31/3/15 26/2/15
f 44/1/16 36/4/16 79/1/16
f 79/5/17 48/3/17 51/2/17
f 79/1/18 26/2/18 31/3/18
f 37/1/19 9/2/19 84/3/19
f 71/1/20 37/1/20 34/4/20
f 37/5/9 45/3/9 23/2/9
f 12/1/21 74/1/21 58/4/21
f 74/5/11 84/3/11 9/2/11
f 74/1/22 23/2/22 45/3/22
f 37/5/23 48/3/23 34/2/23
f 71/1/24 10/4/24 37/1/24
f 37/1/15 10/2/15 45/3/15
f 44/1/25 71/1/25 30/4/25
f 71/1/17 34/2/17 48/3/17
f 71/5/26 45/3/26 10/2/26
f 15/5/27 84/3/27 16/2/27
f 46/1/28 12/1/28 61/4/28
f 15/1/3 5/2/3 1/3/3
f 12/1/29 64/4/29 74/1/29
f 12/1/5 16/2/5 84/3/5
f 12/5/30 1/3/30 5/2/30
f 15/1/31 49/2/31 31/3/31
f 4/1/32 15/1/32 6/4/32
f 15/5/33 1/3/33 6/2/33
f 68/1/34 69/4/34 4/1/34
f 4/5/18 31/3/18 49/2/18
f 4/1/35 6/2/35 1/3/35
f 79/1/36 36/2/36 48/3/36
f 44/1/37 79/1/37 70/4/37
f 79/5/1 60/3/1 70/2/1
f 44/1/38 32/4/38 71/1/38
f 44/5/6 48/3/6 36/2/6
f 44/1/39 70/2/39 60/3/39
f 79/5/31 31/3/31 77/2/31
f 68/1/40 50/4/40 79/1/40
f 79/1/41 50/2/41 60/3/41
f 68/1/42 4/1/42 83/4/42
f 68/1/12 77/2/12 31/3/12
f 68/5/35 60/3/35 50/2/35
f 74/1/43 64/2/43 84/3/43
f 46/1/44 66/4/44 12/1/44
f 74/5/6 73/3/6 58/2/6
f 18/1/45 74/1/45 19/4/45
f 12/5/1 84/3/1 64/2/1
f 12/1/46 58/2/46 73/3/46
f 74/5/47 45/3/47 19/2/47
f 18/1/48 62/4/48 74/1/48
f 74/1/49 62/2/49 73/3/49
f 24/1/50 39/4/50 18/1/50
f 18/1/26 19/2/26 45/3/26
f 18/5/51 73/3/51 62/2/51
f 71/5/52 48/3/52 30/2/52
f 24/1/53 71/1/53 3/4/53
f 71/1/5 32/2/5 25/3/5
f 79/1/54 51/4/54 81/1/54
f 44/1/3 30/2/3 48/3/3
f 44/5/55 25/3/55 32/2/55
f 71/1/47 33/2/47 45/3/47
f 28/1/56 24/1/56 41/4/56
f 71/5/57 25/3/57 3/2/57
f 79/1/58 81/1/58 26/4/58
f 24/5/59 45/3/59 33/2/59
f 24/1/51 3/2/51 25/3/51
f 12/1/47 66/2/47 1/3/47
f 74/1/60 37/1/60 23/4/60
f 12/5/31 73/3/31 61/2/31
f 37/1/61 27/4/61 81/1/61
f 46/5/35 1/3/35 66/2/35
f 46/1/51 61/2/51 73/3/51
f 4/1/15 69/2/15 31/3/15
f 87/1/62 4/1/62 75/4/62
f 4/5/11 47/3/11 83/2/11
f 56/1/63 2/1/63 55/4/63
f 68/5/9 31/3/9 69/2/9
f 68/1/17 83/2/17 47/3/17
f 4/5/47 1/3/47 75/2/47
f 87/1/64 72/4/64 4/1/64
f 4/1/65 72/2/65 47/3/65
f 59/1/66 87/1/66 78/4/66
f 87/1/30 75/2/30 1/3/30
f 87/5/51 47/3/51 72/2/51
f 44/5/47 60/3/47 35/2/47
f 28/1/67 7/4/67 56/1/67
f 44/1/31 53/2/31 25/3/31
f 56/1/68 54/4/68 2/1/68
f 56/1/35 35/2/35 60/3/35
f 56/5/51 25/3/51 53/2/51
f 68/1/47 80/2/47 60/3/47
f 2/1/69 68/1/69 82/4/69
f 68/5/70 47/3/70 82/2/70
f 59/1/71 2/1/71 52/4/71
f 2/5/39 60/3/39 80/2/39
f 2/1/51 82/2/51 47/3/51
f 18/5/15 45/3/15 38/2/15
f 65/1/72 13/4/72 18/1/72
f 18/1/11 39/2/11 40/3/11
f 65/1/73 18/1/73 17/4/73
f 24/1/9 38/2/9 45/3/9
f 24/5/17 40/3/17 39/2/17
f 18/1/31 13/2/31 73/3/31
f 56/1/74 57/4/74 28/1/74
f 18/5/75 40/3/75 17/2/75
f 24/1/76 18/1/76 38/4/76
f 65/5/77 73/3/77 13/2/77
f 65/1/35 17/2/35 40/3/35
f 24/5/31 25/3/31 41/2/31
f 28/1/78 29/4/78 24/1/78
f 24/1/79 29/2/79 40/3/79
f 90/1/80 42/4/80 28/1/80
f 28/1/81 41/2/81 25/3/81
f 28/5/35 40/3/35 29/2/35
f 46/1/82 85/2/82 1/3/82
f 87/1/83 46/1/83 86/4/83
f 46/5/5 22/3/5 86/2/5
f 65/1/84 46/1/84 63/4/84
f 87/5/3 1/3/3 85/2/3
f 87/1/85 86/2/85 22/3/85
f 46/5/86 73/3/86 63/2/86
f 65/1/87 67/4/87 46/1/87
f 46/1/1 67/2/1 22/3/1
f 12/1/88 15/1/88 16/4/88
f 65/1/6 63/2/6 73/3/6
f 65/5/89 22/3/89 67/2/89
f 87/1/90 88/2/90 47/3/90
f 87/5/15 22/3/15 78/2/15
f 59/1/91 88/4/91 87/1/91
f 59/5/17 47/3/17 88/2/17
f 59/1/92 78/2/92 22/3/92
f 56/5/93 60/3/93 54/2/93
f 56/1/6 55/2/6 92/3/6
f 2/1/1 54/2/1 60/3/1
f 59/1/94 8/4/94 2/1/94
f 2/5/95 92/3/95 55/2/95
f 56/1/96 53/4/96 44/1/96
f 56/1/97 7/2/97 25/3/97
f 90/1/98 65/1/98 20/4/98
f 56/5/3 92/3/3 57/2/3
f 28/5/5 25/3/5 7/2/5
f 28/1/99 57/2/99 92/3/99
f 24/1/100 33/4/100 71/1/100
f 2/5/101 47/3/101 52/2/101
f 4/1/102 49/4/102 15/1/102
f 2/1/9 8/2/9 92/3/9
f 2/1/103 80/4/103 68/1/103
f 59/1/11 52/2/11 47/3/11
f 59/5/104 92/3/104 8/2/104
f 65/5/105 40/3/105 20/2/105
f 90/1/106 21/4/106 65/1/106
f 65/1/15 21/2/15 22/3/15
f 90/1/107 59/1/107 89/4/107
f 90/1/17 20/2/17 40/3/17
f 90/5/108 22/3/108 21/2/108
f 28/1/109 42/2/109 40/3/109
f 90/1/110 28/1/110 43/4/110
f 28/5/9 92/3/9 43/2/9
f 56/1/111 44/1/111 35/4/111
f 90/5/11 40/3/11 42/2/11
f 90/1/112 43/2/112 92/3/112
f 59/5/1 22/3/1 89/2/1
f 90/1/113 91/4/113 59/1/113
f 59/1/3 91/2/3 92/3/3
f 87/1/114 85/4/114 46/1/114
f 90/1/5 89/2/5 22/3/5
f 90/5/6 92/3/6 91/2/6
f 12/1/115 5/4/115 15/1/115
